<?xml version="1.0" encoding="UTF-8" standalone="no"?>
<!-- Created with Inkscape (http://www.inkscape.org/) -->

<svg
   width="151.55809mm"
   height="66.061913mm"
   viewBox="0 0 151.55809 66.061913"
   version="1.1"
   id="svg1"
   xml:space="preserve"
   xmlns:inkscape="http://www.inkscape.org/namespaces/inkscape"
   xmlns:sodipodi="http://sodipodi.sourceforge.net/DTD/sodipodi-0.dtd"
   xmlns="http://www.w3.org/2000/svg"
   xmlns:svg="http://www.w3.org/2000/svg"><sodipodi:namedview
     id="namedview1"
     pagecolor="#ffffff"
     bordercolor="#000000"
     borderopacity="0.25"
     inkscape:showpageshadow="2"
     inkscape:pageopacity="0.0"
     inkscape:pagecheckerboard="0"
     inkscape:deskcolor="#d1d1d1"
     inkscape:document-units="mm" /><defs
     id="defs1" /><g
     inkscape:label="Layer 1"
     inkscape:groupmode="layer"
     id="layer1"
     transform="translate(-25.166556,-107.25965)"><path
       style="fill:#00112b;stroke-width:0.58554"
       d="m 105.59613,173.16396 c -0.42098,-0.29487 -0.4297,-0.7737 -0.0181,-0.99399 0.40508,-0.21679 0.88113,-0.0652 1.00323,0.31952 0.18981,0.59805 -0.45953,1.04261 -0.98513,0.67447 z m 2.08953,0.0657 c -0.14567,-0.0815 -0.25439,-0.33645 -0.25439,-0.59649 0,-0.35916 0.0837,-0.47514 0.40042,-0.55462 0.53022,-0.13308 0.914,0.23934 0.78329,0.76013 -0.10678,0.42544 -0.54118,0.60819 -0.92932,0.39098 z m -60.922734,-2.04377 c -0.438376,-0.19868 -0.681614,-0.51432 -0.681614,-0.88451 0,-0.0782 0.480552,-0.14225 1.067894,-0.14225 1.132939,0 1.316744,-0.12143 1.149841,-0.75968 -0.07586,-0.29009 -0.198873,-0.32479 -1.151335,-0.32479 h -1.0664 v -0.93973 c 0,-0.51685 0.08079,-1.09068 0.179528,-1.27518 0.354977,-0.66328 1.479507,-1.30059 2.73957,-1.5526 0.543345,-0.10867 0.486579,-0.27967 0.545566,1.64346 0.0144,0.46962 0.107774,0.79579 0.254331,0.88844 0.359588,0.22733 8.414251,0.19493 8.64395,-0.0348 0.252489,-0.25249 0.233562,-0.51893 -0.05754,-0.81003 -0.207465,-0.20747 -0.779986,-0.24345 -3.873103,-0.24345 -3.123073,0 -3.629651,-0.0324 -3.629651,-0.23239 0,-0.25148 0.533465,-0.85208 0.756829,-0.85208 0.07542,0 1.371001,-0.59837 2.879064,-1.32971 1.508063,-0.73134 2.775809,-1.29583 2.817215,-1.25443 0.0414,0.0414 -0.427609,0.4132 -1.042253,0.82621 -1.252888,0.84187 -1.552051,1.1859 -1.27348,1.46447 0.218604,0.21861 0.479429,0.2484 2.396283,0.27368 1.371306,0.0181 1.539119,0.0539 1.975282,0.42086 0.356503,0.29998 0.476659,0.5311 0.476659,0.91688 0,0.9646 0.06074,1.0059 1.47921,1.0059 0.864252,0 1.331665,-0.064 1.413717,-0.19366 0.06741,-0.10651 0.158675,-0.53658 0.202795,-0.95572 0.06945,-0.65975 0.147117,-0.79934 0.578373,-1.0396 0.273986,-0.15265 0.525687,-0.22801 0.559332,-0.16747 0.109993,0.19787 0.03004,3.25721 -0.08822,3.37542 -0.06336,0.0633 -3.283135,0.10001 -7.155054,0.0815 -6.888794,-0.033 -7.043393,-0.0271 -7.20496,0.27484 -0.09081,0.16967 -0.165111,0.54629 -0.165111,0.83692 0,0.333 -0.115465,0.6329 -0.312249,0.81099 -0.406523,0.36789 -1.768593,0.4652 -2.414468,0.1725 z m 1.480247,-3.41956 c 0.253985,-0.30603 0.143076,-0.92375 -0.176798,-0.98469 -0.316364,-0.0603 -0.81632,0.64606 -0.690104,0.97497 0.113879,0.29676 0.623931,0.30248 0.866902,0.01 z m 12.808789,3.30456 c -0.288404,-0.41175 -0.172505,-0.73221 0.308479,-0.85294 0.651414,-0.16349 1.106179,0.53556 0.647069,0.99466 -0.283993,0.284 -0.700646,0.2222 -0.955548,-0.14172 z m 2.101988,0.14172 c -0.405668,-0.40566 -0.09514,-1.05348 0.50497,-1.05348 0.17548,0 0.406136,0.13943 0.512558,0.30985 0.386556,0.61896 -0.496696,1.26447 -1.017528,0.74363 z m 16.313513,0.0413 c -1.152184,-0.27772 -1.709823,-1.10485 -1.589448,-2.35761 0.07787,-0.81043 0.452499,-1.37094 0.9163,-1.37094 0.238549,0 0.285837,0.12432 0.285837,0.7515 0,1.04653 0.259464,1.72134 0.673582,1.75183 1.33821,0.0985 1.340429,0.0914 1.340429,-4.29056 0,-3.37762 0.02641,-3.76321 0.271117,-3.95968 0.308755,-0.24789 0.924773,-0.60498 1.043637,-0.60498 0.04374,0 0.07956,1.90084 0.07956,4.2241 0,3.82419 -0.02734,4.2752 -0.288636,4.76392 -0.468913,0.87696 -1.65647,1.35175 -2.732382,1.09242 z m 18.862013,-0.1636 c -0.299861,-0.18283 -0.5035,-0.43323 -0.5035,-0.61912 0,-0.28026 0.100876,-0.31212 0.988034,-0.31212 1.079133,0 1.4354,-0.2168 1.26072,-0.76719 -0.08919,-0.28102 -0.228062,-0.31728 -1.215019,-0.31728 h -1.114312 l 0.08378,-1.04574 c 0.04608,-0.57516 0.167904,-1.19637 0.270719,-1.38047 0.235779,-0.42221 0.994751,-0.87329 1.895012,-1.12627 0.38344,-0.10774 0.81165,-0.25472 0.95157,-0.3266 0.13993,-0.0719 0.2968,-0.0883 0.34859,-0.0365 0.12597,0.12597 0.12097,4.51745 -0.006,5.15165 -0.20038,1.00191 -1.872712,1.44245 -2.959726,0.77969 z m 1.731234,-3.60448 c 0.10651,-0.30412 0.095,-0.48129 -0.0399,-0.61621 -0.349893,-0.3499 -1.096187,0.3754 -0.903351,0.87793 0.157551,0.41057 0.766993,0.24147 0.943231,-0.26172 z m 6.51847,3.80022 c -1.20359,-0.23264 -1.78162,-0.93672 -1.78162,-2.17012 0,-0.86645 0.4283,-1.59057 0.94079,-1.59057 0.26388,0 0.2986,0.11578 0.2986,0.99576 0,0.8979 0.0412,1.02818 0.41933,1.32561 0.46893,0.36886 1.05148,0.31677 1.38653,-0.12398 0.10907,-0.14346 0.20091,-0.64428 0.20409,-1.11293 0.0132,-1.9359 0.52706,-2.60275 2.36666,-3.07104 l 1.20066,-0.30564 v 1.19259 c 0,0.721 0.0735,1.2661 0.18591,1.37849 0.11198,0.11198 0.65412,0.18591 1.36333,0.18591 0.70921,0 1.25135,-0.0739 1.36333,-0.18591 0.10225,-0.10225 0.18591,-0.52157 0.18591,-0.93182 0,-0.67529 0.0477,-0.77498 0.5035,-1.05291 0.27693,-0.16884 0.55808,-0.30725 0.62477,-0.30757 0.0667,-3.2e-4 0.10156,0.78373 0.0775,1.74232 l -0.0438,1.74289 -2.7499,0.0423 -2.7499,0.0423 v -1.00144 c 0,-1.12761 -0.20904,-1.41041 -0.64479,-0.87229 -0.21242,0.26233 -0.28482,0.61296 -0.285,1.38024 -2.8e-4,1.21647 -0.32749,1.98356 -1.00676,2.36022 -0.50126,0.27795 -1.36041,0.43395 -1.85909,0.33757 z m 13.99917,-0.26015 c -0.22985,-0.50448 0.0617,-0.90253 0.61227,-0.83593 0.85064,0.10289 0.83068,1.07775 -0.0242,1.17992 -0.31309,0.0374 -0.45111,-0.0433 -0.58811,-0.34399 z m 26.0797,0.18665 c -0.26947,-0.26948 -0.22828,-0.65726 0.10154,-0.95574 0.35946,-0.32531 0.76958,-0.18357 0.89313,0.30867 0.16349,0.65141 -0.53556,1.10618 -0.99467,0.64707 z m 2.01402,0 c -0.28746,-0.28746 -0.22073,-0.70168 0.15549,-0.96519 0.2909,-0.20375 0.38827,-0.20805 0.65842,-0.029 0.41315,0.27382 0.47166,0.61604 0.15878,0.9289 -0.29693,0.29694 -0.71311,0.32487 -0.97269,0.0653 z M 43.137754,170.93371 c -0.417864,-0.41786 -0.390036,-0.7518 0.07746,-0.92955 0.376427,-0.14311 0.387377,-0.18981 0.389683,-1.6616 0.0013,-0.83288 0.05359,-1.58547 0.116192,-1.67241 0.102331,-0.14213 0.876,-0.53909 1.050656,-0.53909 0.03859,0 0.07017,1.04179 0.07017,2.31508 0,2.21671 -0.01463,2.32533 -0.34432,2.55625 -0.469647,0.32895 -0.988414,0.30275 -1.359845,-0.0687 z m 43.337604,-1.05919 c -0.235656,-0.15539 -0.51452,-0.3963 -0.6197,-0.53536 -0.131302,-0.1736 -0.482532,-0.2668 -1.120777,-0.29741 l -0.929544,-0.0446 -0.0414,-3.90972 -0.0414,-3.90972 0.428697,0.18309 c 0.834014,0.3562 0.816009,0.28171 0.816009,3.37593 0,2.27459 0.0462,2.94397 0.21275,3.08219 0.220959,0.18338 0.716795,0.0812 0.716795,-0.14776 0,-0.072 0.31372,-0.34675 0.697155,-0.61056 l 0.697163,-0.47966 0.667334,0.45914 c 0.36704,0.25252 0.759012,0.5696 0.871055,0.7046 0.22736,0.27395 1.328157,0.34048 1.483185,0.0896 0.05299,-0.0857 0.0084,-0.39908 -0.09916,-0.69637 -0.174414,-0.48234 -0.161246,-0.58652 0.12229,-0.96738 0.293567,-0.39434 0.422678,-0.43389 1.696275,-0.51954 0.75818,-0.051 1.527018,-0.14409 1.708517,-0.20687 0.306823,-0.10613 0.327282,-0.067 0.291266,0.55749 l -0.03876,0.67164 -1.143167,0.0463 c -1.263256,0.0512 -1.483683,0.16002 -1.241257,0.61298 0.228659,0.42726 0.98065,0.70196 1.726816,0.6308 l 0.631973,-0.0603 -0.04608,0.54703 -0.04608,0.54702 -2.526787,0.0775 c -2.34507,0.0719 -2.545611,0.10122 -2.788634,0.40791 -0.561562,0.70868 -1.372974,0.86125 -2.084629,0.39199 z m 1.135802,-0.80535 c 0.39555,-0.21169 0.389379,-0.86518 -0.01019,-1.07902 -0.690704,-0.36966 -1.334365,0.67836 -0.658423,1.07206 0.340147,0.19812 0.311971,0.19783 0.668611,0.007 z m 36.31801,0.5563 -0.56581,-0.53363 -2.88024,0.0107 c -2.6113,0.01 -2.89944,-0.0156 -3.08593,-0.2706 -0.15702,-0.21474 -0.2057,-1.13376 -0.2057,-3.88327 0,-1.98109 0.0523,-3.63166 0.11619,-3.66796 0.0639,-0.0363 0.32534,0.0523 0.58097,0.19697 l 0.46477,0.26296 0.0422,2.91947 c 0.0273,1.88446 0.10438,2.99433 0.21751,3.13063 0.12772,0.15391 0.51542,0.19907 1.42953,0.16656 l 1.25427,-0.0446 0.0974,-0.79768 c 0.0535,-0.43872 0.14208,-0.87003 0.19674,-0.95846 0.13801,-0.22332 0.98504,-0.63125 1.09091,-0.52539 0.0477,0.0477 0.0868,0.5557 0.0868,1.12884 0,1.27516 0.25671,1.48129 0.99434,0.79841 0.26259,-0.2431 0.67146,-0.56225 0.90858,-0.7092 0.41547,-0.2575 0.44928,-0.25478 0.92955,0.0745 0.27412,0.18795 0.60298,0.4657 0.73079,0.61722 0.34872,0.41341 0.99056,0.52097 1.29458,0.21695 0.21785,-0.21785 0.25466,-0.66764 0.25466,-3.11196 v -2.85731 l 0.5035,-0.30699 c 0.27693,-0.16885 0.55579,-0.30725 0.6197,-0.30758 0.0639,-3.1e-4 0.11619,1.73487 0.11619,3.85595 0,4.38233 0.11915,4.0446 -1.42694,4.0446 -0.85306,0 -0.9905,0.0485 -1.53702,0.54224 -0.81459,0.73593 -1.4537,0.7384 -2.22751,0.009 z m 1.70706,-0.86291 c 0.15898,-0.25726 -0.0739,-0.74997 -0.40405,-0.85475 -0.39835,-0.12643 -0.75926,0.17581 -0.75926,0.63585 0,0.63203 0.81338,0.78508 1.16331,0.2189 z m -60.276082,0.11151 c -0.04368,-0.11385 -0.01844,-0.37189 0.05615,-0.57345 0.12482,-0.33743 0.211076,-0.36338 1.088613,-0.32757 1.164205,0.0476 1.575641,-0.0692 1.575641,-0.44704 0,-0.52351 -0.431203,-0.77525 -1.327917,-0.77525 h -0.841014 v -0.71374 c 0,-0.62219 0.03478,-0.69833 0.271117,-0.59367 0.149113,0.066 0.748788,0.16186 1.332613,0.21295 0.909068,0.0796 1.114856,0.15493 1.43305,0.52486 0.234983,0.27319 0.371549,0.62607 0.371549,0.9601 0,0.59166 0.416448,0.93428 0.935394,0.76957 0.287641,-0.0913 0.304124,-0.25222 0.306372,-2.99087 0.0012,-1.59191 0.06053,-2.98611 0.131624,-3.09821 0.112529,-0.17746 0.87386,-0.64826 1.048304,-0.64826 0.03431,0 0.0438,1.76033 0.02102,3.91183 l -0.0414,3.91184 -3.140842,0.0419 c -2.507207,0.0335 -3.156863,2e-4 -3.220265,-0.16504 z m 7.713839,-3.39538 0.04157,-3.59593 0.526412,-0.35463 c 0.289526,-0.19505 0.585821,-0.35464 0.658428,-0.35464 0.07261,0 0.132016,1.77776 0.132016,3.95057 v 3.95056 h -0.700014 -0.700018 z m 22.309127,-0.071 0.04152,-3.66694 0.464773,-0.2723 c 0.255629,-0.14977 0.517061,-0.2774 0.580967,-0.28363 0.06391,-0.006 0.116194,1.76644 0.116194,3.93925 v 3.95056 h -0.622499 -0.622505 z m 35.012846,5.9e-4 0.0415,-3.66624 0.51395,-0.28702 c 0.28267,-0.15786 0.56154,-0.25768 0.6197,-0.22182 0.0581,0.0358 0.086,1.81482 0.0618,3.95325 l -0.0439,3.88806 h -0.61733 -0.61731 z m 4.76673,2.82694 c 0,-0.95384 0.19733,-1.59301 0.58705,-1.90148 0.14577,-0.11538 0.82276,-0.48446 1.50442,-0.8202 l 1.23939,-0.61042 0.0775,1.34981 c 0.0426,0.74239 0.13387,1.43694 0.20281,1.54345 0.1671,0.25819 2.45279,0.26473 2.70977,0.008 0.10225,-0.10224 0.18591,-0.52157 0.18591,-0.93182 0,-0.67529 0.0477,-0.77498 0.5035,-1.05291 0.27693,-0.16884 0.55808,-0.30725 0.62477,-0.30756 0.0667,-3.3e-4 0.10156,0.78372 0.0775,1.74231 l -0.0438,1.7429 -3.83436,0.0414 -3.83438,0.0415 z m 2.13955,-0.90361 c 0.0358,-0.43274 -0.0108,-0.58097 -0.18259,-0.58097 -0.49484,0 -0.93078,0.81963 -0.60776,1.14265 0.0604,0.0604 0.25212,0.0894 0.42605,0.0646 0.24342,-0.0348 0.32729,-0.17902 0.3643,-0.62624 z m 7.03346,1.5585 c -0.13632,-0.13633 -0.18742,-1.21372 -0.18742,-3.95208 0,-2.07056 0.0241,-3.76465 0.0536,-3.76465 0.15671,0 1.02169,0.4995 1.16591,0.67327 0.10374,0.12499 0.18383,1.32054 0.20996,3.13401 l 0.0423,2.93192 1.21535,0.0455 c 1.47853,0.0553 1.65075,-0.0567 1.65075,-1.07376 0,-0.68885 0.0459,-0.78592 0.5035,-1.06493 0.27692,-0.16884 0.55274,-0.30725 0.61291,-0.30756 0.0602,-3.3e-4 0.12989,0.49755 0.15492,1.10639 0.0351,0.85262 0.10781,1.14611 0.31663,1.27733 0.53457,0.3359 0.80578,-0.0594 0.89082,-1.29826 0.0756,-1.10122 0.0905,-1.13545 0.6197,-1.41978 l 0.54223,-0.29136 0.0454,0.42874 c 0.0839,0.79282 0.14394,0.8514 0.57968,0.5659 0.37341,-0.24467 1.69704,-0.30375 5.00623,-0.22345 0.20014,0.005 0.56889,0.22829 0.81945,0.49652 0.43249,0.46298 0.4533,0.54737 0.41074,1.66543 l -0.0448,1.17775 -7.21021,0.0402 c -5.47892,0.0306 -7.25521,-0.005 -7.39763,-0.14718 z m 13.28481,-1.12502 c 0.25652,-0.3091 0.0574,-0.84106 -0.35274,-0.9423 -0.18603,-0.0459 -1.38398,-0.0635 -2.66211,-0.0391 -2.29342,0.0438 -2.32453,0.0491 -2.37448,0.40152 -0.1042,0.73501 0.13539,0.80483 2.7618,0.80483 1.94478,0 2.47878,-0.0457 2.62753,-0.22496 z m -42.7219,-3.52423 c -0.50017,-0.50017 0.0351,-1.28528 0.70681,-1.03678 0.59738,0.22099 0.37371,1.22269 -0.27302,1.22269 -0.13633,0 -0.33154,-0.0837 -0.43379,-0.18591 z m 26.84835,-0.12393 c -0.22401,-0.70579 0.35546,-1.25271 0.90305,-0.8523 0.30235,0.22108 0.33892,0.71029 0.073,0.97623 -0.2961,0.29611 -0.86566,0.22378 -0.97602,-0.12393 z m -6.43316,-0.3919 c -0.15038,-0.1812 -0.15563,-0.32705 -0.0223,-0.6197 0.35108,-0.77053 1.37922,-0.30886 1.16201,0.52178 -0.10543,0.40317 -0.8344,0.4658 -1.13972,0.0979 z m 2.07372,0.004 c -0.17492,-0.45583 0.0824,-1.00666 0.47032,-1.00666 0.48935,0 0.77098,0.36829 0.65006,0.85007 -0.0773,0.30803 -0.19516,0.38932 -0.5644,0.38932 -0.27221,0 -0.50389,-0.097 -0.55598,-0.23273 z m -42.040334,-3.60938 c 0,-0.0682 0.06435,-0.19017 0.143006,-0.27112 0.07865,-0.081 0.165796,-0.35633 0.193656,-0.61195 0.04105,-0.37653 0.131541,-0.47408 0.476688,-0.5138 0.517231,-0.0595 0.537701,0.0595 0.07747,0.45024 l -0.348584,0.29595 0.348584,0.29595 c 0.481683,0.40896 0.4422,0.47866 -0.271117,0.47866 -0.340837,0 -0.6197,-0.0558 -0.6197,-0.12393 z m -38.40216,-1.90466 c -0.743676,-0.15531 -1.280674,-0.59513 -1.695654,-1.3888 -0.302574,-0.57869 -0.349651,-0.86051 -0.296099,-1.77256 0.03513,-0.59838 0.181943,-1.31233 0.327531,-1.59282 0.552238,-1.06398 1.614616,-1.73916 2.729665,-1.73481 0.535543,0.002 0.741516,0.16849 0.717572,0.57971 -0.02156,0.37029 -0.111209,0.39276 -0.689592,0.17286 -0.65298,-0.24826 -1.269584,0.0486 -1.808796,0.8709 -0.465151,0.70933 -0.44431,2.91111 0.0339,3.58152 0.4456,0.62469 1.133842,0.92408 1.577936,0.68641 0.280993,-0.15038 0.323904,-0.3163 0.323904,-1.25237 v -1.07901 h 0.464772 0.464773 v 1.30028 c 0,1.09186 -0.04346,1.31846 -0.271117,1.41372 -0.543344,0.22736 -1.367772,0.32169 -1.878795,0.21497 z m 60.586994,-0.0843 c -1.01079,-0.50874 -1.29416,-1.95929 -0.55447,-2.83837 0.22318,-0.26522 0.60193,-0.58366 0.84168,-0.70763 0.38074,-0.19689 0.41954,-0.27952 0.30659,-0.65287 -0.0711,-0.23509 -0.24583,-0.65403 -0.38825,-0.93097 -0.46846,-0.91092 -0.32453,-1.04503 1.12793,-1.05089 1.41408,-0.006 1.67472,0.0755 1.52169,0.47433 -0.0825,0.21505 -0.22859,0.25118 -0.73881,0.18275 -0.78521,-0.10532 -1.0697,-0.007 -0.9548,0.32919 0.0707,0.20715 1.26965,2.77423 1.37045,2.93439 0.11161,0.17734 0.52255,-0.23037 0.63731,-0.63231 0.0961,-0.33673 0.25079,-0.51033 0.48461,-0.54404 0.46262,-0.0667 0.44751,0.32564 -0.0458,1.18851 -0.46189,0.80797 -0.47414,1.06265 -0.0756,1.57216 0.16663,0.21303 0.30451,0.47446 0.3064,0.58097 0.006,0.32324 -0.77895,0.21837 -1.07176,-0.14323 l -0.27279,-0.33689 -0.45444,0.32358 c -0.65511,0.46648 -1.42421,0.56123 -2.03998,0.25132 z m 1.89522,-0.98901 c 0.29543,-0.29004 0.2937,-0.30403 -0.1379,-1.11344 -0.2404,-0.45083 -0.48904,-0.87791 -0.55251,-0.94908 -0.15363,-0.1722 -1.0174,0.28354 -1.13926,0.6011 -0.13095,0.34125 -0.11735,1.19424 0.0223,1.40061 0.38681,0.57149 1.25731,0.60078 1.80733,0.0608 z m 40.29092,1.12794 c -1.09367,-0.19775 -1.7862,-1.22979 -1.90089,-2.83278 -0.14359,-2.00698 0.56272,-3.42363 1.8122,-3.63473 1.16013,-0.19601 2.01835,0.47828 2.43561,1.91359 0.68338,2.35074 -0.61359,4.86734 -2.34692,4.55392 z m 0.58585,-0.64689 c 0.60904,-0.23155 0.88596,-1.04212 0.88569,-2.59252 -3.5e-4,-1.99535 -0.54434,-2.93745 -1.50174,-2.60075 -0.58342,0.20518 -0.85857,0.84395 -0.94523,2.19438 -0.0876,1.36495 0.17522,2.41771 0.70825,2.83699 0.4511,0.35483 0.38072,0.34148 0.85303,0.1619 z m 13.68976,0.6069 c -0.67927,-0.1268 -0.858,-0.32728 -0.75803,-0.85028 l 0.0699,-0.36542 0.48771,0.29739 c 0.63416,0.38668 1.34919,0.3797 1.77536,-0.0173 0.68626,-0.63935 0.34528,-1.37751 -0.93264,-2.01903 -1.09063,-0.54751 -1.36201,-0.87789 -1.36201,-1.65815 0,-0.56801 0.087,-0.77267 0.50721,-1.19285 0.83138,-0.83139 2.43635,-0.93891 2.43635,-0.16322 0,0.34848 -0.035,0.35901 -0.92332,0.27846 -0.87952,-0.0798 -0.93201,-0.0647 -1.10645,0.31819 -0.26324,0.57775 0.14696,1.12728 1.18375,1.58579 0.97106,0.42945 1.35304,0.92736 1.35304,1.76369 0,1.42912 -1.18982,2.31044 -2.73083,2.02277 z M 25.166556,155.05372 v -3.17595 h 1.309565 c 1.465251,0 1.98412,0.16739 2.236605,0.72153 0.281273,0.61733 0.199018,1.10245 -0.277317,1.63556 l -0.449325,0.50288 0.565518,0.48885 c 0.495703,0.4285 0.565519,0.57556 0.565519,1.19125 0,1.26671 -0.870297,1.80928 -2.904828,1.81096 l -1.045737,5.8e-4 z m 2.386322,2.37997 c 0.530046,-0.2415 0.732196,-0.87522 0.47461,-1.48783 -0.243748,-0.57971 -0.641473,-0.81468 -1.378968,-0.81468 H 26.0961 v 1.23939 1.2394 h 0.534945 c 0.29422,0 0.709044,-0.0793 0.921833,-0.17628 z m 0.131194,-3.39943 c 0.572278,-0.7002 0.123642,-1.48932 -0.890813,-1.56688 l -0.619697,-0.0474 -0.04753,0.83362 c -0.06737,1.18165 0.01193,1.31648 0.708703,1.20493 0.318021,-0.0509 0.700223,-0.24185 0.849337,-0.4243 z m 3.201251,3.99682 c -0.576565,-0.44267 -0.675735,-0.92308 -0.734535,-3.55833 l -0.0579,-2.59498 h 0.467334 0.467336 l 0.05179,2.64643 c 0.04764,2.43471 0.07658,2.66455 0.361637,2.87299 0.171214,0.12519 0.550866,0.20615 0.848521,0.18094 0.826005,-0.07 0.928172,-0.42781 0.930823,-3.2603 l 0.0023,-2.44006 h 0.362094 0.362094 l -0.05848,2.44006 c -0.07596,3.169 -0.103418,3.32265 -0.651724,3.64654 -0.525544,0.31045 -1.980058,0.35172 -2.351267,0.0667 z m 4.506225,-2.97736 v -3.17595 h 0.464772 0.464772 v 3.17595 3.17594 H 35.85632 35.391548 Z m 2.41723,3.04676 c -0.04391,-0.0711 -0.08094,-1.50023 -0.08229,-3.17595 l -0.0025,-3.04676 h 0.527444 0.527444 l 0.0089,2.73981 c 0.0066,2.02085 0.06016,2.77497 0.204131,2.87378 0.107359,0.0737 0.630922,0.0937 1.163473,0.0445 0.955983,-0.0883 0.968277,-0.0845 0.968277,0.30216 v 0.39163 H 39.50618 c -0.889658,0 -1.653489,-0.0581 -1.697402,-0.12919 z m 4.390377,0.013 c -0.005,-0.0639 -0.0057,-1.47564 -0.0017,-3.13721 l 0.0073,-3.02102 h 1.292408 c 1.169913,0 1.345063,0.0402 1.847949,0.42412 0.473588,0.36156 0.591667,0.58296 0.800431,1.50082 0.216413,0.95149 0.219293,1.19943 0.02477,2.13213 -0.184281,0.8836 -0.31106,1.13439 -0.778705,1.54045 -0.307222,0.26677 -0.774453,0.5282 -1.038289,0.58097 -0.669548,0.13391 -2.143257,0.12005 -2.154191,-0.0203 z m 2.284678,-0.80587 c 0.581119,-0.35433 0.820713,-1.0466 0.821995,-2.37504 9.37e-4,-0.96788 -0.306231,-1.8938 -0.73667,-2.22062 -0.387566,-0.29428 -1.3754,-0.27402 -1.492291,0.0306 -0.182591,0.47583 -0.103899,4.48577 0.09187,4.68153 0.27003,0.27003 0.751105,0.22743 1.315094,-0.11646 z m 2.991796,-2.25388 v -3.17594 h 0.464773 0.464772 v 3.17594 3.17595 h -0.464772 -0.464773 z m 2.425638,3.06036 c -0.04531,-0.0733 -0.06818,-1.48904 -0.05083,-3.14607 l 0.03156,-3.01277 h 0.510746 c 0.586669,0 0.597536,0.0151 1.659978,2.30138 0.390213,0.83972 0.75125,1.48498 0.802304,1.43393 0.05105,-0.0511 0.07717,-0.92981 0.05803,-1.9528 l -0.03479,-1.85997 h 0.397164 0.397164 v 3.17594 c 0,3.04996 -0.01203,3.17595 -0.303342,3.17595 -0.237489,0 -0.538205,-0.48769 -1.385173,-2.2464 -0.595007,-1.23552 -1.164051,-2.2464 -1.264545,-2.2464 -0.134472,0 -0.167565,0.58288 -0.125337,2.20767 0.05623,2.16343 0.05069,2.20862 -0.276584,2.25526 -0.183678,0.0262 -0.371034,-0.0124 -0.416346,-0.0857 z m 12.292152,-3.06036 v -3.17594 h 0.774622 c 0.636482,0 0.774623,0.0487 0.774623,0.27299 0,0.30591 0.689017,2.54511 0.898113,2.91875 0.155595,0.27803 0.436737,-0.40566 0.882473,-2.146 l 0.267832,-1.04574 h 0.679958 0.679953 v 3.17594 3.17595 H 66.763681 66.37637 v -2.40132 c 0,-2.94219 -0.183573,-3.12062 -0.836204,-0.81277 -0.522664,1.84827 -0.64691,2.12962 -0.94043,2.12962 -0.119075,0 -0.251442,-0.122 -0.294152,-0.27111 -0.58397,-2.0389 -1.069805,-3.44707 -1.189272,-3.44707 -0.08804,0 -0.148271,0.97555 -0.148271,2.40133 v 2.40132 H 62.58073 62.193419 Z m 6.04204,2.92314 c 0,-0.13904 0.383441,-1.43195 0.852084,-2.87313 0.468649,-1.44117 0.852084,-2.75658 0.852084,-2.92313 0,-0.46503 0.874756,-0.42521 1.005249,0.0457 0.297156,1.07248 1.520647,4.88198 1.641292,5.1104 0.07815,0.14795 0.142093,0.40939 0.142093,0.58096 0,0.24262 -0.102247,0.31195 -0.460082,0.31195 -0.415552,0 -0.480805,-0.0712 -0.674109,-0.73589 l -0.214027,-0.73589 -1.012568,-0.0454 -1.012574,-0.0454 -0.172413,0.49457 c -0.09482,0.27201 -0.172406,0.6236 -0.172406,0.7813 0,0.20256 -0.113694,0.28673 -0.387311,0.28673 -0.254897,0 -0.387312,-0.0864 -0.387312,-0.25281 z m 2.739045,-2.16528 c 0.106428,-0.27734 -0.345995,-1.85874 -0.571668,-1.99822 -0.167992,-0.10382 -0.523233,0.68339 -0.675614,1.49713 -0.115943,0.61918 -0.02043,0.71697 0.720771,0.73801 0.261472,0.007 0.468496,-0.0857 0.526511,-0.23692 z m 2.805592,-0.75801 -0.04485,-3.1761 0.503506,1.6e-4 0.5035,1.5e-4 v 3.17594 3.17595 H 74.283581 73.82491 Z m 2.356494,1.5e-4 v -3.17594 h 0.534322 c 0.508009,0 0.558436,0.0515 1.024028,1.04574 1.081153,2.30872 1.27215,2.67244 1.403393,2.67244 0.07521,0 0.136741,-0.83659 0.136741,-1.85909 v -1.85909 h 0.387311 0.387312 v 3.17594 c 0,3.09625 -0.008,3.17595 -0.316906,3.17595 -0.254277,0 -0.533632,-0.44398 -1.413459,-2.2464 -0.603106,-1.23552 -1.157653,-2.2464 -1.232333,-2.2464 -0.07469,0 -0.135787,1.01088 -0.135787,2.2464 v 2.2464 H 76.523901 76.13659 Z m 6.323135,3.07005 c -0.01581,-0.0696 -0.03326,-1.34652 -0.0387,-2.83766 l -0.01,-2.71117 -0.735889,-0.0472 c -0.609518,-0.0391 -0.735889,-0.099 -0.735889,-0.34858 0,-0.28245 0.121465,-0.30136 1.936551,-0.30136 1.815086,0 1.93655,0.0189 1.93655,0.30136 0,0.24961 -0.126377,0.30947 -0.735889,0.34858 l -0.735889,0.0472 -0.0123,2.78863 -0.0123,2.78864 -0.413742,0.049 c -0.227559,0.0269 -0.426683,-0.008 -0.442499,-0.0775 z m 3.390376,0.008 c -0.05952,-0.0595 -0.108214,-1.49091 -0.108214,-3.18087 v -3.07267 h 1.714943 c 1.662593,0 1.71343,0.0101 1.665433,0.33034 -0.0452,0.30146 -0.151098,0.33193 -1.211435,0.34858 l -1.161935,0.0183 v 1.007 1.00701 h 0.774624 c 0.679642,0 0.780554,0.0417 0.823023,0.34015 0.04397,0.3089 -0.02723,0.34448 -0.774623,0.38731 l -0.823024,0.0472 v 1.08212 1.08213 l 1.290637,-0.0496 c 1.275517,-0.0491 1.290032,-0.0454 1.239395,0.31219 -0.04954,0.34979 -0.105614,0.36328 -1.685928,0.40548 -0.899075,0.024 -1.683382,-0.005 -1.742896,-0.0645 z m 4.384589,-3.07665 v -3.19559 l 0.556796,0.0481 c 0.509425,0.044 0.598398,0.12865 1.045739,0.99504 0.268915,0.52083 0.655723,1.33999 0.859578,1.82036 0.20385,0.48037 0.430425,0.8734 0.5035,0.8734 0.07308,0 0.132865,-0.83659 0.132865,-1.85909 v -1.85909 h 0.393214 0.393213 l -0.04462,3.13525 c -0.05814,4.08589 -0.131893,4.12831 -1.662354,0.95642 -0.604622,-1.2531 -1.148109,-2.22956 -1.207746,-2.16993 -0.05964,0.0596 -0.110603,1.06339 -0.113261,2.23056 l -0.0047,2.12213 -0.426044,0.049 -0.426039,0.049 z m 4.931177,3.09697 c -0.05012,-0.0501 0.08117,-0.62821 0.291728,-1.28466 1.052227,-3.28049 1.412633,-4.56736 1.335476,-4.76842 -0.06316,-0.16461 0.0503,-0.22078 0.446076,-0.22078 h 0.530792 l 0.431965,1.43305 c 0.237583,0.78818 0.668488,2.14868 0.957563,3.02334 0.289075,0.87466 0.525598,1.66338 0.525598,1.75271 0,0.0893 -0.219712,0.14058 -0.488252,0.11388 -0.436919,-0.0435 -0.510913,-0.12664 -0.703866,-0.79136 l -0.21562,-0.74282 -1.032149,0.0457 -1.032154,0.0457 -0.168571,0.69715 c -0.122653,0.50728 -0.252848,0.70949 -0.478024,0.74243 -0.170198,0.0249 -0.350451,0.004 -0.400562,-0.0459 z m 2.637934,-2.22885 c 0.148997,-0.0944 0.177694,-0.28546 0.09854,-0.65605 -0.174122,-0.81524 -0.520012,-1.56121 -0.678489,-1.46327 -0.221082,0.13664 -0.687318,1.74847 -0.583795,2.01825 0.0993,0.25876 0.816565,0.32105 1.163744,0.10107 z m 2.810809,-0.86906 v -3.17595 l 0.58096,0.004 c 0.51998,0.004 0.60787,0.0646 0.83719,0.58097 0.88166,1.98532 1.46559,3.12401 1.58279,3.08649 0.0742,-0.0237 0.12276,-0.85954 0.108,-1.85731 l -0.0268,-1.81415 h 0.39871 0.39871 l -0.0419,3.13722 c -0.0533,3.99257 -0.13446,4.04633 -1.58782,1.05267 -0.97771,-2.01392 -1.30268,-2.56029 -1.33562,-2.24559 -0.008,0.081 -0.003,1.10578 0.0129,2.27739 l 0.0283,2.1302 h -0.47765 -0.47763 z m 6.33975,2.82368 c -1.43505,-0.96708 -1.72776,-2.87891 -0.71626,-4.67819 0.52079,-0.92638 1.20855,-1.32144 2.30055,-1.32144 0.49865,0 0.91196,0.0523 0.91849,0.1162 0.007,0.0639 0.0352,0.2382 0.0637,0.38731 0.0606,0.31666 -0.10418,0.33686 -0.77354,0.0948 -0.38322,-0.13858 -0.58281,-0.13029 -0.93273,0.0387 -0.73588,0.35544 -1.05748,1.09503 -1.06341,2.44553 -0.006,1.38901 0.22758,1.96356 0.97581,2.39933 0.49772,0.28986 0.56688,0.29365 1.20066,0.0657 0.56168,-0.20197 0.67252,-0.20632 0.67252,-0.0264 0,0.33055 -0.94057,0.82938 -1.56506,0.83003 -0.32473,3.4e-4 -0.77661,-0.14671 -1.08078,-0.35169 z m 3.71569,0.286 c -0.0364,-0.0365 -0.0486,-1.37848 -0.027,-2.98229 0.0216,-1.60381 0.0398,-3.00317 0.0405,-3.10968 5.8e-4,-0.14319 0.44808,-0.19366 1.71612,-0.19366 1.67224,0 1.7137,0.008 1.66543,0.33658 -0.0463,0.31476 -0.12381,0.33413 -1.19542,0.29872 -0.8152,-0.0269 -1.18338,0.0213 -1.27575,0.16693 -0.17824,0.28111 -0.16712,1.10606 0.0216,1.60242 0.14092,0.37066 0.21283,0.40176 0.73589,0.31829 0.66145,-0.10556 1.05494,0.0779 0.9202,0.429 -0.0634,0.16523 -0.34703,0.25427 -0.91338,0.28675 l -0.82143,0.0471 -0.0471,0.91339 c -0.0259,0.50237 0.0227,0.98323 0.10804,1.06857 0.0853,0.0854 0.68171,0.14124 1.32526,0.12421 1.15931,-0.0307 1.17008,-0.0273 1.17008,0.36448 v 0.39544 h -1.67834 c -0.92309,0 -1.70817,-0.0298 -1.74462,-0.0663 z m 13.717,-0.13216 c -0.0419,-0.10914 -0.0572,-1.52088 -0.0338,-3.13722 l 0.0423,-2.93878 1.12417,-0.0456 c 1.36627,-0.0553 2.04908,0.22023 2.55284,1.03031 0.30371,0.48839 0.35102,0.77327 0.35102,2.11371 0,1.38741 -0.0389,1.60372 -0.37199,2.07079 -0.20459,0.28686 -0.65774,0.65134 -1.007,0.80995 -0.75777,0.34414 -2.53765,0.40896 -2.65745,0.0968 z m 2.66907,-0.96553 c 0.5678,-0.63249 0.67625,-2.77588 0.19402,-3.83427 -0.20441,-0.44861 -0.73835,-0.73397 -1.3734,-0.73397 -0.34435,0 -0.46259,0.0873 -0.54087,0.39917 -0.15266,0.60827 -0.0767,4.13245 0.096,4.45695 0.20839,0.39143 1.16692,0.22155 1.62423,-0.28788 z m 2.7875,1.06067 c -0.0568,-0.0568 -0.10328,-1.48598 -0.10328,-3.17594 v -3.07267 h 1.71494 c 1.66259,0 1.71343,0.0101 1.66543,0.33034 -0.0452,0.30146 -0.15109,0.33193 -1.21143,0.34858 l -1.16193,0.0183 -0.046,0.9635 c -0.0428,0.89697 -0.0214,0.96875 0.30985,1.03954 0.19571,0.0418 0.56499,0.0614 0.82061,0.0435 0.37293,-0.0261 0.47434,0.0347 0.51318,0.30762 0.044,0.3089 -0.0272,0.34448 -0.77462,0.38731 l -0.82302,0.0472 -0.0458,1.04574 c -0.0521,1.18909 -0.17152,1.10795 1.55631,1.05736 1.02682,-0.03 1.04574,-0.0234 1.04574,0.36619 v 0.39681 h -1.67834 c -0.92309,0 -1.72483,-0.0465 -1.78163,-0.10329 z m 5.70638,-0.0771 c -0.65223,-0.35984 -1.16309,-0.98255 -1.40596,-1.71375 -0.48922,-1.47291 0.23855,-3.58175 1.45269,-4.20943 0.43986,-0.22739 0.86424,-0.29382 1.69616,-0.26548 0.4354,0.0148 0.50351,0.072 0.50351,0.42252 0,0.34971 -0.0479,0.39027 -0.34859,0.29537 -0.92886,-0.29316 -1.15919,-0.26869 -1.65007,0.17527 -0.39115,0.35376 -0.52128,0.6361 -0.65882,1.42937 -0.39847,2.29816 0.73503,3.94483 2.20924,3.20939 0.60603,-0.30233 0.60316,-0.30226 0.60316,-0.0127 0,0.60863 -1.66847,1.07376 -2.40132,0.66943 z m 4.13442,-0.20636 c -0.68015,-0.57231 -0.99421,-1.4952 -0.99205,-2.91525 0.002,-1.4947 0.44243,-2.50695 1.2788,-2.94092 0.97806,-0.50749 2.15883,-0.0811 2.70121,0.97549 0.74391,1.44911 0.51719,3.68689 -0.47726,4.71084 -0.4747,0.48879 -0.63252,0.55657 -1.29581,0.55657 -0.57931,0 -0.86237,-0.0901 -1.21489,-0.38673 z m 1.72146,-0.391 c 0.99883,-0.78567 0.89896,-4.61805 -0.13063,-5.01314 -0.82764,-0.3176 -1.3545,0.22738 -1.6038,1.65897 -0.12272,0.70473 -0.12367,1.23192 -0.004,1.88251 0.22877,1.23754 0.50302,1.62679 1.24468,1.76665 0.0524,0.01 0.27434,-0.12286 0.49316,-0.29499 z m 3.00061,0.67445 c -0.0568,-0.0568 -0.10328,-1.49251 -0.10328,-3.19046 v -3.08718 l 1.56289,0.0532 c 1.49041,0.0508 1.58023,0.0734 1.93656,0.48792 0.27249,0.317 0.37365,0.61931 0.37365,1.1166 0,0.59364 -0.0702,0.73793 -0.54223,1.11456 -0.56632,0.45187 -0.63704,0.64531 -0.39965,1.09318 0.28164,0.53135 1.0968,2.34298 1.0968,2.43754 0,0.0531 -0.25237,0.0749 -0.56083,0.0485 -0.55601,-0.0477 -0.56499,-0.0598 -1.04574,-1.41505 -0.50542,-1.4248 -0.85676,-1.83339 -1.27678,-1.48481 -0.17407,0.14448 -0.2283,0.49219 -0.21333,1.36783 0.0111,0.64575 0.0152,1.26124 0.009,1.36775 -0.0114,0.20141 -0.65653,0.27105 -0.83721,0.0904 z m 2.50121,-3.93078 c 0.66777,-0.62211 0.2852,-1.59091 -0.69077,-1.74928 -0.33179,-0.0539 -0.6638,-0.0219 -0.78073,0.0752 -0.21018,0.17444 -0.29096,1.69592 -0.10017,1.88671 0.23112,0.23111 1.24221,0.0943 1.57167,-0.2126 z m 5.0918,3.77198 c -0.0421,-0.15408 -0.19165,-0.80302 -0.33236,-1.44208 -0.14072,-0.63906 -0.38707,-1.75451 -0.54744,-2.47879 -0.48779,-2.20286 -0.48808,-2.16894 0.0187,-2.16894 0.33232,0 0.45775,0.0855 0.51135,0.34859 0.039,0.19171 0.11364,0.55772 0.16572,0.81335 0.0849,0.41646 0.19418,1.03442 0.4763,2.69261 0.0656,0.38575 0.13469,0.4781 0.26218,0.35061 0.25172,-0.25172 0.8827,-2.77613 0.88652,-3.54673 0.003,-0.59681 0.0392,-0.65843 0.38762,-0.65843 0.29481,0 0.40473,0.0993 0.47181,0.42605 0.0481,0.23432 0.14911,0.67004 0.22447,0.96827 0.0754,0.29823 0.18247,0.96053 0.23803,1.47178 0.132,1.21456 0.21043,1.47178 0.44874,1.47178 0.19969,0 0.32633,-0.46661 0.80935,-2.98229 0.23897,-1.24453 0.29004,-1.35559 0.62339,-1.35559 0.19971,0 0.3631,0.0647 0.3631,0.14368 0,0.13919 -1.31217,5.38113 -1.48845,5.94613 -0.0554,0.1778 -0.2064,0.2627 -0.41313,0.23239 -0.27071,-0.0397 -0.37374,-0.25713 -0.60998,-1.28716 -0.4452,-1.9411 -0.59268,-2.41605 -0.72484,-2.33437 -0.0675,0.0417 -0.24643,0.60085 -0.39752,1.24245 -0.43136,1.8317 -0.63587,2.3256 -0.9851,2.37908 -0.19622,0.03 -0.34032,-0.0562 -0.38846,-0.23239 z m 11.61758,0.1588 c -0.0568,-0.0568 -0.10328,-1.48598 -0.10328,-3.17594 v -3.07267 h 1.21627 c 1.62226,0 2.08523,0.1773 2.42384,0.92821 0.34682,0.7691 0.21844,1.29782 -0.46125,1.89958 -0.58815,0.5207 -0.59572,0.4489 0.23711,2.24823 0.25142,0.54321 0.45713,1.0525 0.45713,1.13176 0,0.2154 -0.86687,0.17391 -1.05304,-0.0504 -0.0888,-0.10699 -0.21226,-0.40328 -0.27438,-0.65843 -0.16046,-0.65915 -0.77744,-2.03272 -0.96516,-2.14874 -0.087,-0.0538 -0.26911,-0.0553 -0.40461,-0.004 -0.20101,0.0771 -0.24637,0.36244 -0.24637,1.54975 0,1.42121 -0.008,1.4552 -0.36148,1.4552 -0.19882,0 -0.40797,-0.0465 -0.46478,-0.10329 z m 2.34103,-3.85607 c 0.4275,-0.29942 0.46909,-1.15048 0.0732,-1.49812 -0.36825,-0.32336 -0.90389,-0.47096 -1.27813,-0.35218 -0.26754,0.0849 -0.30985,0.23441 -0.30985,1.09491 v 0.99657 h 0.58523 c 0.32187,0 0.74017,-0.10853 0.92954,-0.24118 z m 2.48916,3.85204 c -0.0293,-0.0688 -0.033,-1.50631 -0.008,-3.19449 l 0.0451,-3.06943 0.41963,0.0484 c 0.41832,0.0482 0.41963,0.0524 0.41963,1.32355 0,0.71902 0.0676,1.29335 0.15493,1.31686 0.0852,0.0229 0.36442,-0.35272 0.62046,-0.83479 0.78772,-1.48308 1.93578,-2.34148 1.93578,-1.44737 0,0.23495 -0.0883,0.38731 -0.2245,0.38731 -0.29298,0 -1.01489,0.95044 -1.01489,1.33618 0,0.30778 0.80056,2.30261 1.37948,3.43739 0.17858,0.35004 0.32469,0.67407 0.32469,0.72007 0,0.046 -0.23224,0.0836 -0.51609,0.0836 -0.50772,0 -0.52552,-0.0238 -1.09839,-1.47124 -0.32026,-0.80918 -0.63166,-1.50174 -0.69197,-1.53902 -0.40236,-0.24867 -0.96956,1.06473 -0.91331,2.11484 0.0419,0.78294 0.0262,0.81999 -0.3676,0.86557 -0.22627,0.0262 -0.43542,-0.009 -0.46477,-0.0775 z M 59.140987,147.67433 c -0.413871,-0.095 -0.794896,-0.32038 -1.045737,-0.61849 l -0.394629,-0.46899 v -5.79777 -5.79777 h 5.189959 5.189957 v 1.31686 c 0,0.72427 -0.02348,1.31686 -0.05223,1.31686 -0.02875,0 -0.335186,-0.26916 -0.681,-0.59812 -0.845385,-0.8042 -2.121142,-1.14743 -4.341545,-1.16805 l -1.664409,-0.0155 -0.0431,2.12635 -0.04308,2.12634 2.521861,0.0426 2.521868,0.0426 v 0.38731 0.38731 l -2.514507,0.0426 -2.514507,0.0426 -0.04174,3.36578 -0.04174,3.36578 -0.697159,0.0256 c -0.383437,0.0141 -0.990158,-0.0416 -1.348268,-0.12386 z m 7.233761,-0.59482 c 0.167043,-0.42378 0.374816,-0.89436 0.461734,-1.04574 0.150963,-0.26293 0.577752,-1.17811 2.404162,-5.15534 0.449988,-0.97989 1.070203,-2.32222 1.378268,-2.98294 0.308058,-0.66073 0.56011,-1.2892 0.56011,-1.39662 0,-0.10741 -0.139435,-0.45544 -0.30985,-0.7734 -0.170416,-0.31796 -0.309851,-0.61322 -0.309851,-0.65613 0,-0.1918 2.667902,-0.0618 3.211541,0.15651 0.857693,0.34439 0.786802,0.22322 3.987193,6.81451 0.827456,1.70417 1.777155,3.64685 2.110439,4.31709 0.333283,0.67022 0.605975,1.28024 0.605975,1.35558 0,0.17836 -1.91594,0.17031 -2.699181,-0.0114 -0.978701,-0.22699 -1.357335,-0.63275 -2.223834,-2.38315 l -0.81752,-1.65146 h -2.833913 -2.833914 l -0.979884,2.09147 c -0.971007,2.07255 -0.984562,2.09148 -1.49753,2.09148 h -0.517647 z m 7.74783,-4.49685 c 0,-0.28885 -2.090319,-4.47758 -2.272147,-4.55308 -0.09937,-0.0413 -0.284865,0.14712 -0.412208,0.41864 -0.229754,0.48986 -1.162578,2.52375 -1.587188,3.46063 -0.121693,0.2685 -0.221258,0.5648 -0.221258,0.65843 0,0.11587 0.717339,0.17024 2.2464,0.17024 1.393632,0 2.246401,-0.0588 2.246401,-0.15486 z m 10.20239,5.0883 c -0.310658,-0.0847 -0.72895,-0.32855 -0.929545,-0.54196 l -0.364709,-0.38802 -0.07746,-5.44879 -0.07746,-5.44879 -0.866424,0.0282 c -1.186725,0.0387 -1.795453,0.41525 -2.575544,1.59322 -0.831203,1.25515 -0.91267,1.33113 -0.874762,0.81583 0.01716,-0.23281 0.03677,-1.06897 0.04374,-1.85814 l 0.01259,-1.43484 6.080774,0.0405 6.080776,0.0405 0.04374,1.8326 c 0.04801,2.01145 -0.03332,2.12205 -0.656449,0.89239 -0.65827,-1.29903 -1.977726,-2.13445 -3.156027,-1.99825 l -0.414234,0.0479 -0.07746,5.96458 -0.07746,5.96458 -0.774623,0.0262 c -0.426039,0.0144 -1.028794,-0.0431 -1.339452,-0.12778 z m 9.12542,-0.007 c -0.318968,-0.0847 -0.754691,-0.36174 -0.968273,-0.61557 l -0.388336,-0.46151 v -5.8199 -5.81991 l 1.261464,0.0865 c 1.089444,0.0747 1.316558,0.14147 1.66544,0.48985 0.390268,0.3897 0.406593,0.48076 0.481431,2.68557 l 0.07746,2.2822 2.827362,0.0422 c 2.617344,0.0391 2.827764,0.0218 2.832754,-0.23238 0.003,-0.15104 0.0204,-1.39007 0.0387,-2.75341 l 0.0334,-2.47878 0.96803,-0.0461 c 1.20739,-0.0575 1.93234,0.25357 2.27535,0.97641 0.21357,0.45006 0.24089,1.2669 0.20563,6.14627 l -0.0407,5.62722 -0.97061,-0.0271 c -1.28813,-0.036 -2.06865,-0.41894 -2.31279,-1.13485 -0.10845,-0.31804 -0.18852,-1.48708 -0.19365,-2.82737 l -0.009,-2.28513 h -2.772058 c -2.38484,0 -2.785197,0.0343 -2.866102,0.24506 -0.0517,0.13478 -0.09403,1.56396 -0.09403,3.17594 v 2.9309 l -0.735895,-0.016 c -0.404737,-0.009 -0.996865,-0.0853 -1.315832,-0.17007 z m 13.969002,-0.0504 c -1.36571,-0.42768 -1.29885,-0.0935 -1.35068,-6.7512 l -0.0457,-5.87105 0.97525,2.4e-4 c 1.2149,2.9e-4 1.96236,0.34787 2.33164,1.08422 0.24658,0.4917 0.26823,1.0621 0.23238,6.11951 l -0.0395,5.57727 -0.69716,0.0315 c -0.38343,0.0173 -1.01622,-0.0684 -1.40619,-0.19051 z m 3.16746,0.001 c 0.28334,-0.73837 3.04139,-10.01031 3.04139,-10.22447 0,-0.14147 -0.24401,-0.69355 -0.54224,-1.22683 -0.29823,-0.53328 -0.54224,-1.01519 -0.54224,-1.07091 0,-0.0557 0.67973,-0.1012 1.51051,-0.10106 2.14135,3.4e-4 2.40541,0.1573 3.29214,1.95677 0.38344,0.77812 0.78357,1.61471 0.88918,1.85909 0.95777,2.21624 2.20261,4.91492 2.32239,5.03471 0.24622,0.24621 0.4234,-0.12429 1.34324,-2.80877 0.48176,-1.40594 1.1426,-3.32312 1.46856,-4.26041 l 0.59264,-1.70417 0.79171,0.006 c 1.31925,0.0105 1.33065,0.0288 3.28598,5.26111 0.44579,1.19293 0.89984,2.37809 1.009,2.63372 0.27272,0.63862 1.56755,4.10258 1.6939,4.53153 0.10052,0.34125 0.0763,0.34858 -1.15213,0.34858 -1.31845,0 -2.06717,-0.21437 -2.51767,-0.72084 -0.14619,-0.16436 -0.91416,-2.00402 -1.70659,-4.08814 -1.45939,-3.83825 -1.76026,-4.33939 -1.99594,-3.32454 -0.1215,0.52314 -1.15626,3.55139 -1.37641,4.02803 -0.0787,0.17041 -0.25838,0.67585 -0.39929,1.12318 l -0.2562,0.81333 0.48261,0.94292 c 0.26542,0.51862 0.48259,1.00663 0.48259,1.08449 0,0.18081 -2.05828,0.17783 -2.84234,-0.004 -1.04864,-0.24334 -1.42309,-0.79277 -2.96265,-4.34711 -0.27681,-0.63907 -0.71474,-1.61509 -0.97317,-2.16894 -0.25842,-0.55385 -0.58384,-1.28149 -0.72316,-1.61697 -0.2131,-0.51316 -0.28427,-0.57462 -0.44847,-0.3873 -0.10735,0.12245 -0.34616,0.71065 -0.53069,1.30711 -0.18454,0.59645 -0.50665,1.64219 -0.71582,2.32386 -1.58147,5.15393 -1.52723,5.03504 -2.29733,5.03504 -0.2169,0 -0.28589,-0.0726 -0.2235,-0.2352 z m 21.01258,0.14376 c 0,-0.0611 0.16681,-0.46637 0.37069,-0.90063 0.20387,-0.43426 0.97776,-2.11417 1.71975,-3.73312 0.74199,-1.61896 1.7251,-3.75786 2.18469,-4.75311 l 0.83562,-1.80955 -0.30897,-0.72082 c -0.16994,-0.39644 -0.30898,-0.75641 -0.30898,-0.79994 0,-0.0435 0.68538,-0.0552 1.52305,-0.0259 2.25488,0.0788 2.24495,0.0686 4.46455,4.59456 2.05281,4.18586 3.92754,8.09011 3.92754,8.17937 0,0.13115 -2.28034,0.0494 -2.82255,-0.10119 -0.91974,-0.25543 -1.40701,-0.79693 -2.21514,-2.46164 l -0.75709,-1.55956 h -2.83588 -2.8359 l -0.77015,1.66543 c -1.15378,2.495 -1.11286,2.43411 -1.67256,2.4886 -0.27427,0.0267 -0.49867,-0.001 -0.49867,-0.0625 z m 8.05606,-5.13718 c 0,-0.0639 -0.49814,-1.13837 -1.10697,-2.38782 -1.09811,-2.25354 -1.37307,-2.5622 -1.61196,-1.80951 -0.0534,0.16811 -0.50403,1.15265 -1.0015,2.18788 -0.49746,1.03522 -0.87065,1.93697 -0.82929,2.00389 0.0961,0.15544 4.54972,0.16089 4.54972,0.006 z m -59.310197,-11.49764 -2.685415,-0.083 4.079732,-4.02223 c 2.24386,-2.21223 7.654719,-7.56292 12.024135,-11.89043 4.369417,-4.3275 8.009055,-7.86819 8.088095,-7.86819 0.079,0 2.21091,2.03919 4.73753,4.53153 2.52661,2.49234 4.67338,4.53153 4.77061,4.53153 0.12043,0 0.19064,-0.6049 0.22028,-1.89782 l 0.0435,-1.89782 h 3.17117 3.17118 v 5.23826 5.23826 l 2.7499,2.73196 c 1.51245,1.50258 3.37735,3.32809 4.14422,4.0567 l 1.39432,1.32473 -5.05552,5e-4 -5.05551,4.9e-4 -7.02849,-7.04906 c -3.86567,-3.87697 -7.0635,-7.04904 -7.1063,-7.04904 -0.14745,0 -3.717982,3.54713 -3.717982,3.69361 0,0.0807 2.352122,2.45473 5.226952,5.27561 l 5.22696,5.12888 h -5.03502 -5.035004 l -2.630293,-2.63372 c -1.446664,-1.44853 -2.706858,-2.63371 -2.800433,-2.63371 -0.09357,0 -1.402011,1.22003 -2.907645,2.71118 l -2.737511,2.71117 -2.284022,-0.0332 c -1.256212,-0.0183 -3.49246,-0.0705 -4.969443,-0.1162 z"
       id="path1" /></g></svg>
